<?xml version="1.0" encoding="UTF-8" standalone="no"?><!DOCTYPE svg PUBLIC "-//W3C//DTD SVG 1.1//EN" "http://www.w3.org/Graphics/SVG/1.1/DTD/svg11.dtd"><svg width="100%" height="100%" viewBox="0 0 3 9" version="1.1" xmlns="http://www.w3.org/2000/svg" xmlns:xlink="http://www.w3.org/1999/xlink" xml:space="preserve" xmlns:serif="http://www.serif.com/" style="fill-rule:evenodd;clip-rule:evenodd;stroke-linejoin:round;stroke-miterlimit:1.41421;"><path id="accolade_left" d="M0,3.841c0.225,-0.005 0.407,-0.065 0.548,-0.181c0.142,-0.115 0.236,-0.273 0.282,-0.474c0.047,-0.201 0.072,-0.545 0.075,-1.031c0.003,-0.487 0.012,-0.807 0.026,-0.962c0.026,-0.245 0.075,-0.441 0.146,-0.59c0.072,-0.149 0.16,-0.267 0.265,-0.356c0.104,-0.089 0.239,-0.157 0.402,-0.203c0.11,-0.029 0.291,-0.044 0.541,-0.044l0.246,0l0,0.686l-0.136,0c-0.303,0 -0.504,0.055 -0.603,0.164c-0.099,0.109 -0.149,0.353 -0.149,0.732c0,0.764 -0.016,1.246 -0.048,1.447c-0.053,0.312 -0.142,0.552 -0.269,0.72c-0.127,0.17 -0.325,0.32 -0.596,0.451c0.32,0.134 0.553,0.339 0.697,0.614c0.144,0.275 0.216,0.726 0.216,1.353c0,0.567 0.006,0.905 0.018,1.014c0.023,0.198 0.082,0.336 0.177,0.415c0.095,0.078 0.28,0.118 0.557,0.118l0.136,0l0,0.686l-0.246,0c-0.285,0 -0.492,-0.024 -0.62,-0.07c-0.187,-0.067 -0.341,-0.175 -0.463,-0.326c-0.123,-0.15 -0.202,-0.34 -0.238,-0.57c-0.037,-0.23 -0.056,-0.608 -0.059,-1.132c-0.003,-0.524 -0.028,-0.887 -0.075,-1.088c-0.046,-0.201 -0.14,-0.36 -0.282,-0.476c-0.141,-0.117 -0.323,-0.178 -0.548,-0.184l0,-0.713Z" style="fill:#ebeff3;fill-rule:nonzero;"/></svg>