<?xml version="1.0" encoding="UTF-8" standalone="no"?><!DOCTYPE svg PUBLIC "-//W3C//DTD SVG 1.1//EN" "http://www.w3.org/Graphics/SVG/1.1/DTD/svg11.dtd"><svg width="100%" height="100%" viewBox="0 0 3 9" version="1.1" xmlns="http://www.w3.org/2000/svg" xmlns:xlink="http://www.w3.org/1999/xlink" xml:space="preserve" xmlns:serif="http://www.serif.com/" style="fill-rule:evenodd;clip-rule:evenodd;stroke-linejoin:round;stroke-miterlimit:1.41421;"><path id="accolade_right" d="M2.531,3.841c-0.225,-0.005 -0.408,-0.065 -0.548,-0.181c-0.142,-0.115 -0.236,-0.273 -0.282,-0.474c-0.047,-0.201 -0.072,-0.545 -0.075,-1.031c-0.003,-0.487 -0.012,-0.807 -0.026,-0.962c-0.026,-0.245 -0.075,-0.441 -0.146,-0.59c-0.072,-0.149 -0.16,-0.267 -0.265,-0.356c-0.105,-0.089 -0.239,-0.157 -0.402,-0.203c-0.11,-0.029 -0.292,-0.044 -0.542,-0.044l-0.245,0l0,0.686l0.136,0c0.303,0 0.504,0.055 0.603,0.164c0.099,0.109 0.149,0.353 0.149,0.732c0,0.764 0.015,1.246 0.047,1.447c0.053,0.312 0.143,0.552 0.27,0.72c0.126,0.17 0.325,0.32 0.596,0.451c-0.32,0.134 -0.553,0.339 -0.697,0.614c-0.144,0.275 -0.216,0.726 -0.216,1.353c0,0.567 -0.006,0.905 -0.018,1.014c-0.023,0.198 -0.082,0.336 -0.177,0.415c-0.095,0.078 -0.281,0.118 -0.557,0.118l-0.136,0l0,0.686l0.245,0c0.285,0 0.493,-0.024 0.621,-0.07c0.186,-0.067 0.341,-0.175 0.463,-0.326c0.122,-0.15 0.202,-0.34 0.238,-0.57c0.037,-0.23 0.056,-0.608 0.059,-1.132c0.003,-0.524 0.028,-0.887 0.075,-1.088c0.046,-0.201 0.14,-0.36 0.282,-0.476c0.14,-0.117 0.323,-0.178 0.548,-0.184l0,-0.713Z" style="fill:#ebeff3;fill-rule:nonzero;"/></svg>