<?xml version="1.0" encoding="UTF-8" standalone="no"?><!DOCTYPE svg PUBLIC "-//W3C//DTD SVG 1.1//EN" "http://www.w3.org/Graphics/SVG/1.1/DTD/svg11.dtd"><svg width="100%" height="100%" viewBox="0 0 22 17" version="1.1" xmlns="http://www.w3.org/2000/svg" xmlns:xlink="http://www.w3.org/1999/xlink" xml:space="preserve" xmlns:serif="http://www.serif.com/" style="fill-rule:evenodd;clip-rule:evenodd;stroke-linejoin:round;stroke-miterlimit:1.41421;"><path id="code" d="M9.153,16.784l-2.002,-0.581c-0.21,-0.059 -0.328,-0.279 -0.269,-0.489l4.479,-15.43c0.059,-0.21 0.279,-0.328 0.489,-0.269l2.002,0.581c0.21,0.059 0.328,0.279 0.269,0.489l-4.479,15.43c-0.062,0.21 -0.279,0.331 -0.489,0.269Zm-3.741,-3.682l1.427,-1.523c0.151,-0.161 0.142,-0.417 -0.026,-0.564l-2.973,-2.616l2.973,-2.615c0.168,-0.148 0.181,-0.404 0.026,-0.564l-1.427,-1.523c-0.148,-0.157 -0.397,-0.167 -0.558,-0.016l-4.728,4.43c-0.168,0.154 -0.168,0.42 0,0.574l4.728,4.433c0.161,0.151 0.41,0.145 0.558,-0.016Zm10.737,0.019l4.729,-4.433c0.167,-0.154 0.167,-0.42 0,-0.574l-4.729,-4.437c-0.157,-0.147 -0.407,-0.141 -0.558,0.017l-1.427,1.522c-0.151,0.161 -0.141,0.417 0.026,0.565l2.973,2.618l-2.973,2.616c-0.167,0.147 -0.18,0.403 -0.026,0.564l1.427,1.523c0.148,0.161 0.397,0.167 0.558,0.019Z" style="fill:#adb9c9;fill-rule:nonzero;"/></svg>