<?xml version="1.0" encoding="UTF-8" standalone="no"?><!DOCTYPE svg PUBLIC "-//W3C//DTD SVG 1.1//EN" "http://www.w3.org/Graphics/SVG/1.1/DTD/svg11.dtd"><svg width="100%" height="100%" viewBox="0 0 2134 2134" version="1.1" xmlns="http://www.w3.org/2000/svg" xmlns:xlink="http://www.w3.org/1999/xlink" xml:space="preserve" xmlns:serif="http://www.serif.com/" style="fill-rule:evenodd;clip-rule:evenodd;stroke-linejoin:round;stroke-miterlimit:2;"><path d="M900,0l333.333,0c55.417,0 100,44.583 100,100l0,700l365.417,0c74.167,0 111.25,89.583 58.75,142.083l-633.75,634.167c-31.25,31.25 -82.5,31.25 -113.75,0l-634.583,-634.167c-52.5,-52.5 -15.417,-142.083 58.75,-142.083l365.833,0l0,-700c0,-55.417 44.583,-100 100,-100Zm1233.33,1566.67l0,466.666c0,55.417 -44.583,100 -100,100l-1933.33,0c-55.417,0 -100,-44.583 -100,-100l0,-466.666c0,-55.417 44.583,-100 100,-100l611.25,-0l204.167,204.166c83.75,83.75 218.75,83.75 302.5,0l204.166,-204.166l611.25,-0c55.417,-0 100,44.583 100,100Zm-516.666,366.666c-0,-45.833 -37.5,-83.333 -83.334,-83.333c-45.833,0 -83.333,37.5 -83.333,83.333c0,45.834 37.5,83.334 83.333,83.334c45.834,-0 83.334,-37.5 83.334,-83.334Zm266.666,0c0,-45.833 -37.5,-83.333 -83.333,-83.333c-45.833,0 -83.333,37.5 -83.333,83.333c-0,45.834 37.5,83.334 83.333,83.334c45.833,-0 83.333,-37.5 83.333,-83.334Z" style="fill:#c9d3df;fill-rule:nonzero;"/></svg>