<?xml version="1.0" encoding="UTF-8" standalone="no"?><!DOCTYPE svg PUBLIC "-//W3C//DTD SVG 1.1//EN" "http://www.w3.org/Graphics/SVG/1.1/DTD/svg11.dtd"><svg width="100%" height="100%" viewBox="0 0 25 24" version="1.1" xmlns="http://www.w3.org/2000/svg" xmlns:xlink="http://www.w3.org/1999/xlink" xml:space="preserve" xmlns:serif="http://www.serif.com/" style="fill-rule:evenodd;clip-rule:evenodd;stroke-linejoin:round;stroke-miterlimit:1.41421;"><path d="M12.097,0l12.098,8.789l-4.621,14.222l-14.953,0l-4.621,-14.222l12.097,-8.789Z" style="fill:#374355;"/><clipPath id="_clip1"><path d="M12.097,0l12.098,8.789l-4.621,14.222l-14.953,0l-4.621,-14.222l12.097,-8.789Z"/></clipPath><g clip-path="url(#_clip1)"><path id="Facebook-Icon" serif:id="Facebook Icon" d="M9.663,20.991l0,-7.53l-2.846,0l0,-2.876l2.847,0l0,-2.177c0,-2.503 1.693,-3.877 4.199,-3.877c1.201,0 2.254,0.072 2.554,0.108l0,2.654l-1.779,0c-1.363,0 -1.618,0.577 -1.618,1.424l0,1.868l3.262,0l-0.424,2.876l-2.838,0l0,7.53l-3.357,0Z" style="fill:#ebeff3;fill-rule:nonzero;"/></g></svg>