<?xml version="1.0" encoding="UTF-8" standalone="no"?><!DOCTYPE svg PUBLIC "-//W3C//DTD SVG 1.1//EN" "http://www.w3.org/Graphics/SVG/1.1/DTD/svg11.dtd"><svg width="100%" height="100%" viewBox="0 0 24 24" version="1.1" xmlns="http://www.w3.org/2000/svg" xmlns:xlink="http://www.w3.org/1999/xlink" xml:space="preserve" xmlns:serif="http://www.serif.com/" style="fill-rule:evenodd;clip-rule:evenodd;stroke-linejoin:round;stroke-miterlimit:2;"><path d="M11.999,0c-6.626,0 -11.999,5.373 -11.999,12.001c0,5.301 3.438,9.799 8.207,11.386c0.6,0.11 0.819,-0.261 0.819,-0.578c-0,-0.285 -0.011,-1.04 -0.017,-2.042c-3.337,0.726 -4.042,-1.608 -4.042,-1.608c-0.546,-1.386 -1.332,-1.755 -1.332,-1.755c-1.09,-0.745 0.082,-0.729 0.082,-0.729c1.205,0.084 1.838,1.236 1.838,1.236c1.071,1.834 2.809,1.304 3.493,0.997c0.109,-0.776 0.419,-1.304 0.762,-1.604c-2.665,-0.303 -5.467,-1.333 -5.467,-5.931c0,-1.31 0.468,-2.381 1.236,-3.22c-0.124,-0.304 -0.536,-1.524 0.118,-3.176c-0,-0 1.007,-0.323 3.299,1.23c0.957,-0.266 1.984,-0.399 3.004,-0.403c1.02,0.004 2.046,0.137 3.005,0.403c2.291,-1.553 3.296,-1.23 3.296,-1.23c0.655,1.652 0.243,2.872 0.12,3.176c0.769,0.839 1.233,1.91 1.233,3.22c0,4.61 -2.806,5.624 -5.478,5.921c0.43,0.371 0.814,1.103 0.814,2.223c-0,1.604 -0.015,2.898 -0.015,3.292c0,0.32 0.217,0.694 0.825,0.577c4.765,-1.59 8.2,-6.085 8.2,-11.385c0,-6.628 -5.373,-12.001 -12.001,-12.001Z" style="fill:#8393a7;"/></svg>