<?xml version="1.0" encoding="UTF-8" standalone="no"?><!DOCTYPE svg PUBLIC "-//W3C//DTD SVG 1.1//EN" "http://www.w3.org/Graphics/SVG/1.1/DTD/svg11.dtd"><svg width="100%" height="100%" viewBox="0 0 29 17" version="1.1" xmlns="http://www.w3.org/2000/svg" xmlns:xlink="http://www.w3.org/1999/xlink" xml:space="preserve" xmlns:serif="http://www.serif.com/" style="fill-rule:evenodd;clip-rule:evenodd;stroke-linejoin:round;stroke-miterlimit:1.41421;"><path id="graduation-cap" d="M27.251,5.906l-12.067,3.724c-0.773,0.227 -1.595,0.227 -2.368,0l-8.774,-2.707c-0.374,0.5 -0.482,1.008 -0.521,1.677c0.407,0.245 0.679,0.691 0.679,1.2c0,0.523 -0.287,0.979 -0.712,1.219l0.709,5.385c0.028,0.21 -0.136,0.396 -0.347,0.396l-2.1,0c-0.211,0 -0.375,-0.186 -0.347,-0.396l0.709,-5.385c-0.425,-0.24 -0.712,-0.696 -0.712,-1.219c0,-0.527 0.291,-0.985 0.72,-1.224c0.042,-0.785 0.174,-1.454 0.532,-2.082l-1.903,-0.588c-1.001,-0.297 -0.996,-1.716 0,-2.012l12.067,-3.724c0.773,-0.227 1.595,-0.227 2.368,0l12.067,3.724c1.001,0.297 0.996,1.716 0,2.012Zm-11.654,5.061l-0.009,0.003l-0.009,0.003c-1.031,0.303 -2.127,0.303 -3.158,0l-0.009,-0.003l-0.009,-0.003l-6.602,-2.037l-0.551,3.67c0,1.546 3.918,2.8 8.75,2.8c4.833,0 8.75,-1.254 8.75,-2.8l-0.55,-3.67l-6.603,2.037Z" style="fill:#adb9c9;fill-rule:nonzero;"/></svg>