<?xml version="1.0" encoding="UTF-8" standalone="no"?><!DOCTYPE svg PUBLIC "-//W3C//DTD SVG 1.1//EN" "http://www.w3.org/Graphics/SVG/1.1/DTD/svg11.dtd"><svg width="100%" height="100%" viewBox="0 0 6 6" version="1.1" xmlns="http://www.w3.org/2000/svg" xmlns:xlink="http://www.w3.org/1999/xlink" xml:space="preserve" xmlns:serif="http://www.serif.com/" style="fill-rule:evenodd;clip-rule:evenodd;stroke-linejoin:round;stroke-miterlimit:1.41421;"><path id="Link-Icon" serif:id="Link Icon" d="M5.551,1.936l-1.033,1.033c-0.285,0.285 -0.748,0.285 -1.033,0l0.392,-0.392c0.162,0.042 0.342,0.002 0.469,-0.125l0.689,-0.689c0.19,-0.19 0.19,-0.498 0,-0.688l-0.345,-0.345c-0.19,-0.19 -0.498,-0.19 -0.688,0l-0.689,0.689c-0.127,0.127 -0.167,0.307 -0.124,0.469l-0.392,0.392c-0.286,-0.285 -0.286,-0.748 0,-1.033l1.033,-1.033c0.285,-0.285 0.747,-0.285 1.033,0l0.688,0.689c0.286,0.285 0.286,0.747 0,1.033Zm-3.615,1.894c-0.095,-0.096 -0.095,-0.25 0,-0.345l1.549,-1.549c0.095,-0.095 0.249,-0.095 0.345,0c0.095,0.095 0.095,0.249 0,0.344l-1.55,1.55c-0.095,0.095 -0.249,0.095 -0.344,0Zm-0.517,-0.517l-0.689,0.689c-0.19,0.19 -0.19,0.498 0,0.688l0.345,0.345c0.19,0.19 0.498,0.19 0.688,0l0.689,-0.689c0.127,-0.127 0.167,-0.307 0.125,-0.469l0.392,-0.392c0.285,0.285 0.285,0.748 0,1.033l-1.033,1.033c-0.286,0.285 -0.748,0.285 -1.033,0l-0.689,-0.688c-0.285,-0.286 -0.285,-0.748 0,-1.033l1.033,-1.034c0.285,-0.285 0.748,-0.285 1.033,0l-0.392,0.393c-0.162,-0.043 -0.342,-0.003 -0.469,0.124Z" style="fill:#8393a7;"/></svg>