<?xml version="1.0" encoding="UTF-8" standalone="no"?><!DOCTYPE svg PUBLIC "-//W3C//DTD SVG 1.1//EN" "http://www.w3.org/Graphics/SVG/1.1/DTD/svg11.dtd"><svg width="100%" height="100%" viewBox="0 0 12 15" version="1.1" xmlns="http://www.w3.org/2000/svg" xmlns:xlink="http://www.w3.org/1999/xlink" xml:space="preserve" xmlns:serif="http://www.serif.com/" style="fill-rule:evenodd;clip-rule:evenodd;stroke-linejoin:round;stroke-miterlimit:1.41421;"><path id="linux" d="M5.205,3.508c-0.005,-0.04 0.054,-0.066 0.091,-0.083c0.048,-0.02 0.111,-0.028 0.156,-0.002c0.012,0.005 0.023,0.019 0.017,0.031c-0.011,0.034 -0.068,0.028 -0.099,0.045c-0.028,0.014 -0.051,0.048 -0.085,0.048c-0.028,0.003 -0.077,-0.011 -0.08,-0.039Zm0.701,-0.009c0.029,0.014 0.051,0.048 0.086,0.048c0.031,0 0.079,-0.011 0.082,-0.042c0.006,-0.04 -0.054,-0.065 -0.091,-0.082c-0.048,-0.02 -0.111,-0.029 -0.156,-0.003c-0.011,0.005 -0.023,0.02 -0.017,0.031c0.008,0.037 0.065,0.031 0.096,0.048Zm6.093,8.803c-0.014,0.233 -0.184,0.392 -0.394,0.52c-0.423,0.255 -1.059,0.448 -1.445,0.913l-0.073,-0.062l0.073,0.062c-0.403,0.48 -0.899,0.755 -1.37,0.792c-0.469,0.037 -0.908,-0.179 -1.144,-0.653l0,-0.002c-0.031,-0.06 -0.054,-0.125 -0.071,-0.191c-0.61,0.035 -1.141,-0.15 -1.564,-0.116c-0.624,0.034 -1.016,0.185 -1.37,0.187c-0.137,0.301 -0.406,0.5 -0.735,0.574c-0.454,0.105 -1.025,0 -1.587,-0.295l0.046,-0.086l-0.046,0.086c-0.525,-0.279 -1.192,-0.253 -1.683,-0.355c-0.246,-0.051 -0.462,-0.142 -0.57,-0.349c-0.105,-0.207 -0.085,-0.491 0.062,-0.9c0.049,-0.145 0.012,-0.36 -0.022,-0.59c-0.017,-0.111 -0.034,-0.224 -0.034,-0.335c0,-0.122 0.02,-0.241 0.079,-0.352c0.128,-0.241 0.335,-0.343 0.525,-0.411c0.19,-0.069 0.363,-0.114 0.483,-0.236c0.147,-0.156 0.286,-0.409 0.471,-0.573c-0.074,-0.488 0.005,-1.005 0.176,-1.513c0.357,-1.075 1.112,-2.106 1.648,-2.744c0.457,-0.65 0.591,-1.172 0.639,-1.836c0.031,-0.903 -0.695,-3.843 2.211,-3.837c2.296,0.003 2.165,2.424 2.151,3.726c-0.009,0.854 0.462,1.433 0.948,2.043c0.431,0.511 0.996,1.258 1.319,2.112c0.264,0.698 0.366,1.47 0.105,2.245c0.04,0.014 0.08,0.034 0.117,0.056c0.039,0.023 0.076,0.051 0.113,0.083c0.187,0.159 0.247,0.405 0.298,0.635c0.054,0.23 0.102,0.446 0.204,0.559c0.315,0.352 0.452,0.611 0.44,0.843Zm-6.093,-9.206c0.103,0.026 0.253,0.068 0.369,0.125c-0.059,-0.346 0.128,-0.667 0.335,-0.653c0.253,0.009 0.395,0.44 0.258,0.775c-0.022,0.054 -0.079,0.097 -0.11,0.131c0.19,0.065 0.312,0.116 0.357,0.139c0.225,-0.27 0.307,-0.744 0.122,-1.147c-0.278,-0.607 -0.97,-0.619 -1.248,0.011c-0.091,0.205 -0.111,0.423 -0.083,0.619Zm-1.311,0.534c0.222,-0.162 0.196,-0.134 0.168,-0.156c-0.227,-0.196 -0.188,-0.778 0.051,-0.798c0.179,-0.014 0.306,0.304 0.272,0.556c0.088,-0.059 0.19,-0.102 0.29,-0.13c0.048,-0.548 -0.256,-0.951 -0.542,-0.951c-0.537,0 -0.681,1.064 -0.239,1.479Zm-0.266,0.593c0.042,0.139 0.173,0.298 0.417,0.434c0.221,0.131 0.34,0.326 0.567,0.426c0.074,0.031 0.162,0.054 0.273,0.059c0.522,0.031 0.769,-0.32 1.084,-0.423c0.332,-0.105 0.57,-0.312 0.644,-0.513c0.091,-0.241 -0.06,-0.417 -0.298,-0.517c-0.321,-0.139 -0.463,-0.147 -0.641,-0.264c-0.293,-0.187 -0.534,-0.252 -0.735,-0.252c-0.409,0 -0.659,0.278 -0.792,0.403c-0.014,0.014 -0.224,0.167 -0.4,0.298c-0.119,0.093 -0.159,0.21 -0.119,0.349Zm-0.951,7.174l-0.556,-1.01c-0.193,-0.261 -0.392,-0.42 -0.622,-0.454c-0.218,-0.034 -0.357,0.039 -0.502,0.195c-0.136,0.145 -0.25,0.35 -0.406,0.511c-0.221,0.185 -0.264,0.176 -0.556,0.281c-0.179,0.063 -0.321,0.131 -0.42,0.321c-0.077,0.142 -0.06,0.346 -0.026,0.567c0.034,0.225 0.085,0.463 0.017,0.679l0,0.005c-0.142,0.389 -0.142,0.616 -0.074,0.75c0.225,0.437 1.323,0.173 2.171,0.621c0.892,0.466 2.061,0.485 2.137,-0.511c0.06,-0.581 -0.894,-1.39 -1.163,-1.955Zm4.367,1.016c0.091,-0.312 0.179,-0.605 0.193,-0.823c0.023,-0.431 0.046,-0.815 0.125,-1.132c0.088,-0.358 0.264,-0.656 0.608,-0.775c0.065,-0.599 0.53,-0.599 1.086,-0.355c0.537,0.241 0.738,0.454 0.647,0.741c0.029,0 0.057,-0.003 0.12,0c0.147,-0.48 -0.406,-0.795 -0.872,-0.988c0.083,-0.34 0.069,-0.684 -0.011,-1.013c-0.17,-0.718 -0.641,-1.356 -0.999,-1.674c-0.065,-0.003 -0.059,0.054 0.074,0.184c0.329,0.304 1.053,1.396 0.661,2.41c-0.111,-0.029 -0.216,-0.043 -0.309,-0.04c-0.151,-0.826 -0.497,-1.51 -0.67,-1.833c-0.326,-0.608 -0.837,-1.854 -1.056,-2.716c-0.127,0.181 -0.352,0.337 -0.632,0.425c-0.134,0.043 -0.276,0.157 -0.452,0.256c-0.394,0.227 -0.851,0.25 -1.203,-0.034c-0.128,-0.102 -0.227,-0.216 -0.358,-0.293c-0.045,-0.025 -0.144,-0.093 -0.175,-0.116c-0.057,1.073 -0.775,2.421 -1.116,3.198c-0.235,0.559 -0.374,1.158 -0.391,1.746c-0.619,-0.826 -0.168,-1.882 0.073,-2.339c0.27,-0.499 0.313,-0.638 0.247,-0.59c-0.244,0.397 -0.624,1.03 -0.772,1.68c-0.076,0.338 -0.09,0.681 0.009,0.999c0.099,0.318 0.315,0.61 0.698,0.849c0,0 0.704,0.405 1.087,0.922c0.21,0.284 0.275,0.531 0.21,0.706c-0.071,0.191 -0.273,0.253 -0.474,0.253c0.136,0.17 0.292,0.369 0.409,0.556c1.067,0.73 2.332,0.446 3.243,-0.204Zm3.673,-0.82c-0.284,-0.321 -0.205,-0.94 -0.486,-1.181c-0.196,-0.17 -0.386,-0.153 -0.641,-0.145c-0.219,0.25 -0.732,0.557 -1.09,0.463c-0.326,-0.082 -0.511,-0.463 -0.533,-0.837c-0.009,0.006 -0.02,0.008 -0.029,0.014c-0.201,0.111 -0.315,0.307 -0.389,0.599c-0.07,0.289 -0.096,0.667 -0.119,1.098c-0.02,0.335 -0.176,0.749 -0.281,1.152c-0.099,0.375 -0.164,0.715 -0.031,1.03c0.204,0.412 0.554,0.579 0.957,0.548c0.402,-0.031 0.862,-0.278 1.237,-0.723c0.624,-0.755 1.768,-0.843 1.793,-1.32c0.009,-0.145 -0.088,-0.369 -0.388,-0.698Zm-6.86,-7.373c0.057,0.054 0.134,0.128 0.227,0.201c0.188,0.148 0.449,0.301 0.775,0.301c0.329,0 0.639,-0.167 0.903,-0.306c0.139,-0.074 0.309,-0.199 0.42,-0.295c0.11,-0.097 0.167,-0.179 0.088,-0.188c-0.08,-0.008 -0.074,0.074 -0.171,0.145c-0.125,0.091 -0.275,0.21 -0.394,0.278c-0.21,0.119 -0.554,0.29 -0.849,0.29c-0.295,0 -0.53,-0.137 -0.706,-0.276c-0.088,-0.071 -0.162,-0.142 -0.219,-0.195c-0.042,-0.04 -0.054,-0.131 -0.122,-0.14c-0.04,-0.002 -0.051,0.105 0.048,0.185Z" style="fill:#c9d3df;fill-rule:nonzero;"/></svg>