<?xml version="1.0" encoding="UTF-8" standalone="no"?><!DOCTYPE svg PUBLIC "-//W3C//DTD SVG 1.1//EN" "http://www.w3.org/Graphics/SVG/1.1/DTD/svg11.dtd"><svg width="100%" height="100%" viewBox="0 0 6 6" version="1.1" xmlns="http://www.w3.org/2000/svg" xmlns:xlink="http://www.w3.org/1999/xlink" xml:space="preserve" xmlns:serif="http://www.serif.com/" style="fill-rule:evenodd;clip-rule:evenodd;stroke-linejoin:round;stroke-miterlimit:1.41421;"><path id="phone" d="M5.551,0.277l-1.17,-0.27c-0.127,-0.029 -0.258,0.037 -0.31,0.156l-0.54,1.26c-0.047,0.11 -0.015,0.24 0.078,0.315l0.682,0.558c-0.405,0.863 -1.113,1.581 -1.994,1.994l-0.558,-0.682c-0.076,-0.093 -0.204,-0.125 -0.315,-0.078l-1.26,0.54c-0.12,0.053 -0.186,0.184 -0.157,0.311l0.27,1.17c0.028,0.121 0.136,0.209 0.263,0.209c2.881,0 5.22,-2.334 5.22,-5.22c0,-0.126 -0.087,-0.235 -0.209,-0.263Z" style="fill:#8393a7;fill-rule:nonzero;"/></svg>