<?xml version="1.0" encoding="UTF-8" standalone="no"?><!DOCTYPE svg PUBLIC "-//W3C//DTD SVG 1.1//EN" "http://www.w3.org/Graphics/SVG/1.1/DTD/svg11.dtd"><svg width="100%" height="100%" viewBox="0 0 25 17" version="1.1" xmlns="http://www.w3.org/2000/svg" xmlns:xlink="http://www.w3.org/1999/xlink" xml:space="preserve" xmlns:serif="http://www.serif.com/" style="fill-rule:evenodd;clip-rule:evenodd;stroke-linejoin:round;stroke-miterlimit:1.41421;"><path id="terminal" d="M9.798,8.937l-7.381,7.381c-0.356,0.356 -0.933,0.356 -1.289,0l-0.861,-0.861c-0.355,-0.355 -0.356,-0.931 -0.002,-1.287l5.85,-5.877l-5.85,-5.878c-0.354,-0.356 -0.353,-0.932 0.002,-1.287l0.861,-0.861c0.356,-0.356 0.933,-0.356 1.289,0l7.381,7.381c0.356,0.356 0.356,0.933 0,1.289Zm14.509,6.951l0,-1.215c0,-0.503 -0.408,-0.911 -0.912,-0.911l-11.545,0c-0.504,0 -0.912,0.408 -0.912,0.911l0,1.215c0,0.504 0.408,0.912 0.912,0.912l11.545,0c0.504,0 0.912,-0.408 0.912,-0.912Z" style="fill:#adb9c9;fill-rule:nonzero;"/></svg>