<?xml version="1.0" encoding="UTF-8" standalone="no"?><!DOCTYPE svg PUBLIC "-//W3C//DTD SVG 1.1//EN" "http://www.w3.org/Graphics/SVG/1.1/DTD/svg11.dtd"><svg width="100%" height="100%" viewBox="0 0 25 24" version="1.1" xmlns="http://www.w3.org/2000/svg" xmlns:xlink="http://www.w3.org/1999/xlink" xml:space="preserve" xmlns:serif="http://www.serif.com/" style="fill-rule:evenodd;clip-rule:evenodd;stroke-linejoin:round;stroke-miterlimit:1.41421;"><path d="M12.097,0l12.098,8.789l-4.621,14.222l-14.953,0l-4.621,-14.222l12.097,-8.789Z" style="fill:#374355;"/><clipPath id="_clip1"><path d="M12.097,0l12.098,8.789l-4.621,14.222l-14.953,0l-4.621,-14.222l12.097,-8.789Z"/></clipPath><g clip-path="url(#_clip1)"><path id="Twitter-Icon" serif:id="Twitter Icon" d="M17.824,9.189c0.005,0.13 0.007,0.261 0.007,0.392c0,4.008 -2.971,8.63 -8.405,8.63c-1.669,0 -3.221,-0.501 -4.529,-1.364c0.232,0.029 0.466,0.042 0.705,0.042c1.384,0 2.658,-0.483 3.669,-1.298c-1.292,-0.023 -2.384,-0.9 -2.76,-2.105c0.18,0.036 0.367,0.055 0.557,0.055c0.268,0 0.529,-0.038 0.778,-0.107c-1.352,-0.279 -2.371,-1.505 -2.371,-2.973c0,-0.016 0,-0.027 0,-0.038c0.399,0.225 0.855,0.363 1.339,0.378c-0.793,-0.545 -1.315,-1.472 -1.315,-2.524c0,-0.556 0.145,-1.076 0.401,-1.526c1.456,1.836 3.634,3.042 6.089,3.171c-0.05,-0.222 -0.076,-0.456 -0.076,-0.693c0,-1.674 1.323,-3.032 2.955,-3.032c0.849,0 1.616,0.369 2.155,0.958c0.674,-0.136 1.306,-0.388 1.878,-0.736c-0.222,0.707 -0.69,1.302 -1.301,1.676c0.598,-0.07 1.168,-0.235 1.697,-0.476c-0.396,0.608 -0.896,1.142 -1.473,1.57Z" style="fill:#ebeff3;"/></g></svg>